<?xml version="1.0" standalone="no"?>
<!DOCTYPE svg PUBLIC "-//W3C//DTD SVG 20010904//EN"
 "http://www.w3.org/TR/2001/REC-SVG-20010904/DTD/svg10.dtd">
<svg version="1.0" xmlns="http://www.w3.org/2000/svg"
 width="500.000000pt" height="500.000000pt" viewBox="0 0 500.000000 500.000000"
 preserveAspectRatio="xMidYMid meet">

<g transform="translate(0.000000,500.000000) scale(0.100000,-0.100000)"
fill="#FFFFFF" stroke="none">
<path d="M1880 4760 l0 -230 79 0 c519 0 1130 -221 1562 -566 623 -497 985
-1216 1012 -2009 l2 -70 224 -3 c124 -1 228 1 232 5 9 11 -7 283 -26 417 -111
798 -536 1536 -1169 2031 -314 245 -727 452 -1106 554 -212 57 -516 101 -702
101 l-108 0 0 -230z"/>
<path d="M1880 3830 l0 -229 33 -5 c17 -3 70 -7 117 -10 237 -13 541 -115 757
-252 229 -145 438 -358 569 -581 129 -218 217 -490 230 -713 3 -52 7 -110 10
-127 l5 -33 231 0 231 0 -7 103 c-26 381 -125 707 -309 1012 -361 600 -973
986 -1671 1054 -60 6 -129 11 -153 11 l-43 0 0 -230z"/>
<path d="M1955 3074 c-203 -127 -599 -240 -911 -260 l-104 -7 0 -71 c0 -160
-45 -445 -102 -651 -128 -462 -422 -996 -754 -1371 -35 -39 -64 -76 -66 -82
-2 -6 35 -50 82 -97 l84 -85 687 686 686 686 5 69 c20 275 340 398 534 205 60
-61 94 -140 94 -221 0 -168 -146 -315 -313 -315 l-52 0 -684 -684 c-376 -376
-682 -688 -680 -694 9 -25 162 -172 172 -165 7 3 46 36 87 73 240 211 585 432
898 575 351 160 820 275 1123 275 l66 0 7 107 c22 330 143 733 283 945 25 36
26 43 20 126 -8 107 -46 249 -96 363 -100 227 -300 430 -525 534 -130 60 -315
106 -421 104 -41 -1 -63 -9 -120 -45z"/>
</g>
</svg>
